<svg xmlns="http://www.w3.org/2000/svg" width="32.529" height="36.648" viewBox="0 0 32.529 36.648">
  <path id="volume-up-solid" d="M22.724,3.594,20.185,6.086l-8.447,8.447H5V29.3h6.739l8.447,8.447,2.539,2.492Zm10.062,6.785-2.077,2.077a13.208,13.208,0,0,1,0,18.739l2.077,2.123A16.241,16.241,0,0,0,32.786,10.379Zm-13.016.369v22.34l-6.323-6.323-.462-.415H7.954V17.487h5.031l.462-.415Zm8.724,3.923-2.077,2.077a7.51,7.51,0,0,1-.046,10.478L28.54,29.3A10.509,10.509,0,0,0,28.494,14.671Z" transform="translate(-5 -3.594)" fill="#72ae2f"/>
</svg>
